<svg xmlns="http://www.w3.org/2000/svg" xmlns:xlink="http://www.w3.org/1999/xlink" version="1.1" x="0px" y="0px" viewBox="0 0 100 125" enable-background="new 0 0 100 100" xml:space="preserve"><path d="M98.699,69.11l-1.867-1.352c-0.031-0.023-3.702-2.749-3.886-6.214c-0.222-4.14,1.296-7.032,1.296-7.032  c-2.543,2.154-3.782,4.554-3.68,7.128c0.112,2.853,1.884,5.213,3.259,6.619L54.004,81.91h-0.007l-3.647-4.307l-5.928,2.646  l3.131,3.877l-6.31,2.161c-0.215,0.032-0.429,0.056-0.635,0.056c-2.4,0-4.577-2.717-4.577-5.697c0-2.964,2.034-5.919,4.013-7.063  l56.097-20.746L54.728,9L6.107,25.463C3.708,26.377,2,28.992,2,32.011c0,1.581,0.477,3.115,1.335,4.346l0.445-0.293l-0.429,0.309  l2.074,3.258c-0.334-6.325,4.601-7.962,7.048-9.042l2.384,2.98c-1.812,0.794-7.151,2.496-6.857,8.129l0.016,0.182  c0,1.176,0.35,2.313,0.978,3.21l-0.008,0.007l16.527,25.339c-0.326-3.202,3.154-7.755,8.367-8.859l2.272,2.845  c-5.363,2.058-8.145,5.165-7.612,9.025l0.016,0.176c0,1.177,0.342,2.32,0.978,3.21L29.5,76.857l5.833,9.018l0.04-0.023  c1.303,1.74,3.203,2.876,5.237,2.876c0.39,0,0.787-0.039,1.167-0.119l7.358-2.519l3.464,4.291l1.589-3.513H58.2l-2.551-3.011  L98.699,69.11z M35.618,41.117l-2.384-2.979l8.661-3.266l-6.476-8.455l5.761-1.986l6.572,8.231l8.128-3.067l2.979,2.781  l-8.716,3.281l13.086,16.384l-6.356,2.384L44.207,37.89L35.618,41.117z"/><text x="0" y="115" fill="#000000" font-size="5px" font-weight="bold" font-family="'Helvetica Neue', Helvetica, Arial-Unicode, Arial, Sans-serif">Created by Dan Hetteix</text><text x="0" y="120" fill="#000000" font-size="5px" font-weight="bold" font-family="'Helvetica Neue', Helvetica, Arial-Unicode, Arial, Sans-serif">from the Noun Project</text></svg>