<svg height="494pt" viewBox="-31 0 494 494" width="494pt" xmlns="http://www.w3.org/2000/svg"><path d="m423.738281 8.171875v263.609375h-73.367187l-.402344-.011719c.019531-.417969.03125-.847656.03125-1.269531 0-17.15625-13.53125-31.257812-30.671875-31.96875v-116.03125c0-16.570312-13.429687-30-30-30h-146.65625c-16.570313 0-30 13.429688-30 30v116.03125c-17.144531.703125-30.679687 14.8125-30.671875 31.96875 0 .429688.011719.851562.03125 1.28125h-73.769531v-263.609375zm0 0" fill="#f4b844"/><path d="m82.03125 271.78125c-.019531-.429688-.03125-.851562-.03125-1.28125-.007812-17.15625 13.527344-31.265625 30.671875-31.96875.4375-.019531.886719-.03125 1.328125-.03125h204c.441406 0 .890625.011719 1.328125.03125 17.140625.710938 30.671875 14.8125 30.671875 31.96875 0 .421875-.011719.851562-.03125 1.269531-.671875 17.167969-14.789062 30.738281-31.96875 30.730469h-204c-17.171875-.003906-31.28125-13.558594-31.96875-30.71875zm0 0" fill="#fedb41"/><path d="m319.328125 238.5v.03125c-.4375-.019531-.886719-.03125-1.328125-.03125h-204c-.441406 0-.890625.011719-1.328125.03125v-116.03125c0-16.570312 13.429687-30 30-30h146.65625c16.570313 0 30 13.429688 30 30zm0 0" fill="#00efd1"/><path d="m316.671875 302.5-4.730469 43.359375-.269531-.03125h-48.03125l2.359375-43.328125zm0 0" fill="#00acea"/><path d="m311.941406 345.859375-5.453125 49.992187-.21875-.023437h-45.359375l2.730469-50h48.03125zm0 0" fill="#00efd1"/><path d="m306.488281 395.851562-5.457031 50.007813-.320312-.03125h-42.53125l2.730468-50h45.359375zm0 0" fill="#00acea"/><path d="m301.03125 445.859375-4.359375 39.96875h-40.671875l2.179688-40h42.53125zm0 0" fill="#00efd1"/><path d="m266 302.5-2.359375 43.328125h-47.640625v-43.328125zm0 0" fill="#00efd1"/><path d="m263.640625 345.828125-2.730469 50h-44.910156v-50zm0 0" fill="#00acea"/><path d="m260.910156 395.828125-2.730468 50h-42.179688v-50zm0 0" fill="#00efd1"/><path d="m258.179688 445.828125-2.179688 40h-40v-40zm0 0" fill="#00acea"/><path d="m216 445.828125v40h-40l-2.179688-40zm0 0" fill="#00efd1"/><path d="m216 395.828125v50h-42.179688l-2.730468-50zm0 0" fill="#00acea"/><path d="m216 345.828125v50h-44.910156l-2.730469-50zm0 0" fill="#00efd1"/><path d="m216 302.5v43.328125h-47.640625l-2.359375-43.328125zm0 0" fill="#00acea"/><path d="m173.820312 445.828125 2.179688 40h-40.671875l-4.359375-39.988281.109375-.011719zm0 0" fill="#00acea"/><path d="m171.089844 395.828125 2.730468 50h-42.742187l-.109375.011719-5.457031-50.011719zm0 0" fill="#00efd1"/><path d="m168.359375 345.828125 2.730469 50h-45.578125l-5.453125-50zm0 0" fill="#00acea"/><path d="m166 302.5 2.359375 43.328125h-48.300781l-4.730469-43.328125zm0 0" fill="#00efd1"/><path d="m8.261719 280h66.816406c3.710937 15.921875 16.839844 27.917969 33.03125 30.183594l19.269531 176.652344c.4375 4.066406 3.863282 7.148437 7.949219 7.164062h161.34375c4.097656-.039062 7.515625-3.140625 7.949219-7.21875l4.359375-40.011719v-.019531l14.910156-136.667969c8.480469-1.203125 16.339844-5.125 22.398437-11.179687 5.210938-5.207032 8.886719-11.746094 10.625-18.902344h66.824219c4.511719-.082031 8.15625-3.707031 8.261719-8.21875v-263.609375c-.109375-4.503906-3.757812-8.1132812-8.261719-8.171875h-415.476562c-4.503907.0585938-8.152344 3.667969-8.261719 8.171875v263.609375c.105469 4.511719 3.75 8.136719 8.261719 8.21875zm115.988281 31h34.175781l1.488281 27h-32.683593zm133.300781 0-1.492187 27h-32.058594v-27zm9.078125 127 1.855469-34h29.082031l-3.710937 34zm-42.628906 40v-24h25.734375l-1.308594 24zm-40.425781 0-1.308594-24h25.734375v24zm69.757812-90h-29.332031v-34h31.1875zm17.878907-34h31.8125l-3.710938 34h-29.957031zm-63.210938 34h-29.332031l-1.855469-34h31.1875zm-45.355469 0h-29.957031l-3.710938-34h31.8125zm-28.210937 16h29.082031l1.855469 34h-27.230469zm45.105468 0h28.460938v34h-26.605469zm44.460938 34v-34h28.460938l-1.855469 34zm80.769531-100h-32.683593l1.488281-27h34.175781zm-96.769531 0h-32.0625l-1.488281-27h33.550781zm-68.113281 116h26.355469l1.308593 24h-25.046875zm124.5625 24 1.308593-24h26.355469l-2.613281 24zm77.527343-206.539062c-.222656 6.105468-2.71875 11.90625-7 16.261718-4.46875 4.585938-10.574218 7.203125-16.976562 7.277344h-204c-12.335938-.082031-22.625-9.453125-23.855469-21.726562.066407-.453126.101563-.910157.105469-1.367188-.003906-.660156-.082031-1.316406-.234375-1.957031.203125-12.652344 10.367187-22.882813 23.019531-23.164063.316406-.011718.644532.214844.964844.214844h204c.320312 0 .648438-.242188 1.007812-.226562 12.84375.4375 23.023438 10.996093 22.992188 23.851562 0 .292969-.007812.476562-.023438.835938zm-30.976562-40.460938h-190v-108.5c-.046875-5.746094 2.222656-11.269531 6.304688-15.316406 4.078124-4.046875 9.621093-6.277344 15.367187-6.183594h146.65625c5.746094-.09375 11.289063 2.136719 15.367187 6.183594 4.082032 4.046875 6.351563 9.570312 6.304688 15.316406zm-295-215h400v248h-58.566406c-2.570313-16.007812-14.621094-28.84375-30.433594-32.414062v-109.085938c.042969-9.988281-3.917969-19.578125-10.996094-26.625s-16.6875-10.964844-26.675781-10.875h-146.65625c-9.988281-.089844-19.597656 3.828125-26.675781 10.875s-11.039063 16.636719-10.996094 26.625v109.101562c-7.226562 1.78125-13.832031 5.484376-19.121094 10.71875-5.902344 5.898438-9.851562 13.464844-11.308594 21.679688h-58.570312zm0 0" fill="#083863"/></svg>