<svg height="488pt" viewBox="-55 0 488 488.00437" width="488pt" xmlns="http://www.w3.org/2000/svg"><path d="m370.4375 177.824219v302.410156h-59.679688v-405.089844c.003907 36.160157 14.957032 70.707031 41.320313 95.457031 2.464844 2.3125 5.34375 4.132813 8.492187 5.363282 3.144532 1.226562 6.492188 1.859375 9.867188 1.859375zm0 0" fill="#00acea"/><path d="m254.167969 311.492188c-.085938-2.222657-.285157-4.445313-.597657-6.648438-4.945312-34.808594-36.589843-59.429688-71.542968-55.664062-34.957032 3.765624-60.632813 34.5625-58.046875 69.625.109375 1.449218.257812 2.898437.46875 4.359374 4.882812 34.367188 35.832031 58.882813 70.402343 55.773438 34.574219-3.109375 60.648438-32.757812 59.316407-67.445312zm56.589843-236.347657v405.089844h-243.5v-472.460937h50.113282v62c0 39.566406 32.074218 71.640624 71.636718 71.640624 39.566407 0 71.640626-32.074218 71.640626-71.640624v-62h50.109374zm0 0" fill="#00efd1"/><path d="m254.167969 311.492188c.71875 18.882812-6.785157 37.148437-20.570313 50.074218-13.78125 12.921875-32.492187 19.238282-51.289062 17.308594 1.320312-15.800781-4.183594-31.40625-15.121094-42.882812l41.351562-41.347657c.082032.097657.179688.1875.269532.289063 11.738281 12.25 28.492187 18.363281 45.359375 16.558594zm0 0" fill="#f4b844"/><path d="m253.570312 304.84375c.3125 2.203125.511719 4.425781.597657 6.648438-16.867188 1.804687-33.621094-4.308594-45.359375-16.558594-.089844-.101563-.1875-.191406-.269532-.289063l26.660157-26.660156c9.964843 9.964844 16.414062 22.902344 18.371093 36.859375zm0 0" fill="#fedb41"/><path d="m235.199219 267.984375-26.660157 26.660156c-11.667968-12.160156-17.175781-28.964843-14.960937-45.671875v-.03125c15.71875 1.113282 30.503906 7.875 41.621094 19.042969zm0 0" fill="#fedb41"/><path d="m208.539062 294.644531-41.351562 41.347657c-.136719-.148438-.277344-.289063-.417969-.4375-11.179687-11.496094-26.777343-17.601563-42.789062-16.75-1.375-18.871094 5.503906-37.410157 18.855469-50.8125 13.355468-13.40625 31.867187-20.355469 50.742187-19.050782v.03125c-2.214844 16.707032 3.292969 33.511719 14.960937 45.671875zm0 0" fill="#f4b844"/><path d="m167.1875 335.992188c10.9375 11.476562 16.441406 27.082031 15.121094 42.882812-14.859375-1.539062-28.742188-8.132812-39.320313-18.683594zm0 0" fill="#fedb41"/><path d="m167.1875 335.992188-24.199219 24.199218c-10.058593-9.984375-16.570312-22.992187-18.539062-37.027344-.210938-1.460937-.359375-2.910156-.46875-4.359374 16.011719-.851563 31.609375 5.253906 42.789062 16.75.140625.148437.28125.289062.417969.4375zm0 0" fill="#fedb41"/><path d="m67.257812 75.144531v405.089844h-59.679687v-302.410156c6.816406.011719 13.378906-2.570313 18.359375-7.222657 26.363281-24.75 41.320312-59.296874 41.320312-95.457031zm0 0" fill="#00acea"/><g fill="#083863"><path d="m370.222656 169.824219c-2.34375 0-4.667968-.445313-6.847656-1.3125-2.144531-.859375-4.097656-2.128907-5.75-3.742188-24.660156-23.285156-38.628906-55.707031-38.617188-89.625v-67.371093c-.136718-4.421876-3.828124-7.894532-8.25-7.76953175h-50.109374c-2.058594-.03906245-4.046876.77343775-5.488282 2.24218775-1.445312 1.46875-2.222656 3.46875-2.152344 5.527344v62c0 35.347656-28.652343 64-64 64-35.34375 0-64-28.652344-64-64v-62c.074219-2.058594-.703124-4.058594-2.148437-5.527344s-3.429687-2.2812502-5.488281-2.24218775h-50.363282v7.99999975h-8v67.140625c-.003906 33.925781-13.996093 66.347657-38.671874 89.628907-3.382813 3.257812-7.90625 5.070312-12.605469 5.050781-2.09375.011719-4.09375.867187-5.546875 2.371093-1.453125 1.507813-2.2382815 3.535157-2.1757815 5.628907v302.410156c-.0859375 2.050781.6757815 4.046875 2.1093755 5.519531 1.433593 1.46875 3.410156 2.285156 5.460937 2.25h362.859375c2.054688.035156 4.03125-.78125 5.464844-2.25 1.433594-1.472656 2.195312-3.46875 2.105468-5.519531v-302.410156c.050782-2.101563-.746093-4.128907-2.210937-5.636719-1.464844-1.503906-3.472656-2.355469-5.574219-2.363281zm-295.214844-153.820313h34v53.769532c.28125 44.042968 36.046876 79.609374 80.089844 79.648437 43.910156 0 79.910156-35.730469 79.910156-79.648437v-53.769532h34v456h-228zm-59 168.90625c5.753907-1.585937 11.0625-4.484375 15.5-8.472656 11.195313-10.5625 20.496094-22.957031 27.5-36.660156v332.226562h-43zm346 287.09375h-43v-332.226562c7.085938 13.707031 16.460938 26.105468 27.71875 36.65625 3.101563 3.007812 6.761719 5.378906 10.777344 6.980468 1.566406.609376 3.5 1.109376 4.5 1.488282zm0 0"/><path d="m115.828125 318.8125c.003906.757812.109375 1.511719.324219 2.238281.105468 1.113281.226562 2.199219.375 3.234375 2.117187 15.234375 9.023437 29.398438 19.726562 40.449219.59375.890625 1.359375 1.648437 2.253906 2.238281 11.34375 10.800782 25.84375 17.691406 41.386719 19.660156.777344.246094 1.589844.371094 2.40625.371094.273438 0 .550781-.015625.828125-.042968 1.921875.152343 3.859375.253906 5.800782.253906 3.464843 0 6.929687-.246094 10.359374-.730469 37.070313-5.136719 64.238282-37.496094 62.878907-74.894531 0-.03125 0-.0625 0-.097656 0-.0625-.007813-.125-.011719-.1875 0-.058594 0-.097657 0-.140626 0-.113281-.015625-.21875-.019531-.332031-.003907-.0625-.003907-.125-.011719-.1875-.113281-2.378906-.320312-4.714843-.640625-6.929687-2.140625-15.386719-9.167969-29.683594-20.046875-40.777344-.175781-.222656-.367188-.433594-.566406-.632812-.199219-.199219-.414063-.390626-.632813-.570313-21.523437-21.109375-53.789062-26.863281-81.277343-14.492187-27.492188 12.375-44.582032 40.34375-43.046876 70.449218-.054687.371094-.082031.746094-.085937 1.121094zm50.714844 29.144531c4.226562 6.378907 6.851562 13.6875 7.65625 21.296875-7.035157-1.898437-13.644531-5.117187-19.476563-9.480468zm-23.171875.542969c-4.808594-6.324219-8.226563-13.59375-10.027344-21.328125 8.058594 1.109375 15.699219 4.257813 22.199219 9.152344zm53.679687 22.140625c-2.210937.3125-4.4375.496094-6.664062.546875-.609375-12.535156-4.914063-24.613281-12.367188-34.710938l30.738281-30.738281c10.535157 8.601563 23.597657 13.511719 37.1875 13.988281-2.558593 26.242188-22.78125 47.300782-48.894531 50.914063zm26.445313-102.265625-14.332032 14.328125c-4.917968-7.296875-7.695312-15.824219-8.027343-24.617187 8.113281 1.765624 15.742187 5.277343 22.359375 10.289062zm21.78125 35.308594c-9.113282-.570313-17.851563-3.820313-25.128906-9.335938l14.648437-14.644531c5.320313 7.0625 8.910156 15.277344 10.480469 23.980469zm-64.300782-46.320313c1.378907-.195312 2.765626-.320312 4.152344-.417969.121094 13.429688 4.523438 26.472657 12.566406 37.230469l-30.753906 30.753907c-10-8.097657-22.21875-12.976563-35.046875-13.992188 1.519531-27.265625 22.050781-49.679688 49.082031-53.574219zm0 0"/></g></svg>